# Blender3D v249 OBJ File: city.blend
# www.blender3d.org
v 0.749636 0.023598 -0.409225
v 0.749636 0.023598 0.360799
v -0.595533 0.023598 0.360799
v -0.595533 0.023598 -0.409225
v 0.749636 0.585934 -0.409225
v 0.749635 0.585934 0.360800
v -0.595533 0.585934 0.360799
v -0.595533 0.585934 -0.409225
v 0.749635 0.585934 0.360800
v -0.595533 0.585934 0.360799
v 0.749635 0.585934 0.360800
v -0.595533 0.585934 0.360799
v 0.749635 0.585934 0.360800
v 0.749635 1.367123 0.360800
v 0.749636 1.367123 -0.409225
v 0.749636 0.023598 0.360799
v 0.749635 1.367123 0.360800
v 0.188713 0.585934 0.360800
v 0.188713 1.367123 0.360800
v 0.188713 0.586132 -0.410412
v 0.188713 1.367123 -0.406610
v 0.465054 1.886173 -0.014006
v 0.749636 1.367123 -0.409225
v 0.188713 1.367123 -0.406610
v 0.749636 1.367123 -0.409225
v 0.749635 1.367123 0.360800
v -0.595533 0.585934 -0.409225
v 0.188713 0.586132 -0.410412
v 0.749636 0.585934 -0.409225
v -0.595533 0.585934 -0.409225
v -0.595533 0.930019 -0.043214
v 0.188713 0.930216 -0.044401
vn -0.000000 -1.000000 0.000000
vn 1.000000 -0.000000 0.000000
vn -0.000000 -0.000000 1.000000
vn -1.000000 -0.000000 -0.000000
vn 0.000000 0.000000 -1.000000
vn 0.000000 0.000000 0.000000
vn 1.000000 0.000000 0.000001
vn -0.001272 0.002434 -0.999996
vn 0.000000 0.585425 0.810726
vn -0.003713 0.604509 -0.796590
vn 0.876854 0.480757 0.000001
vn -0.882696 0.469945 0.000000
vn 0.000000 -0.986453 -0.164041
vn -0.001220 0.728593 -0.684946
vn 0.000394 0.761691 0.647940
f 1//1 2//1 3//1 4//1
f 1//2 5//2 6//2 2//2
f 2//3 6//3 7//3 3//3
f 3//4 7//4 8//4 4//4
f 5//5 1//5 4//5 8//5
f 7//6 6//6 9//6 10//6
f 6//6 7//6 12//6 11//6
f 6//6 2//6 13//6 14//6
f 6//7 5//7 15//7 14//7
f 6//6 14//6 17//6 13//6
f 14//3 19//3 18//3 6//3
f 19//4 21//4 20//4 18//4
f 21//8 15//8 5//8 20//8
f 14//9 22//9 19//9
f 21//6 15//6 23//6 24//6
f 24//10 22//10 23//10
f 14//11 15//11 22//11
f 19//12 22//12 21//12
f 5//6 8//6 30//6 29//6
f 20//13 29//13 30//13
f 6//1 18//1 7//1
f 20//14 30//14 31//14 32//14
f 7//15 18//15 32//15 31//15
f 7//4 10//4 31//4 8//4
f 2 16
f 15 25
f 17 26
f 27 8
f 28 20
f 30 28
