# Blender3D v249 OBJ File: settlement.blend
# www.blender3d.org
v 0.326073 0.068834 -0.269336
v 0.326073 0.068834 0.318803
v -0.420036 0.068834 0.318803
v -0.420036 0.068834 -0.269336
v 0.326073 0.498342 -0.269336
v 0.326073 0.498342 0.318803
v -0.420036 0.498342 0.318803
v -0.420036 0.498342 -0.269336
v 0.326073 0.498342 -0.269336
v -0.420036 0.498342 -0.269336
v -0.420036 0.826844 0.019764
v 0.326073 0.826844 0.019764
vn -0.000000 -1.000000 0.000000
vn 1.000000 0.000000 0.000000
vn -0.000000 -0.000000 1.000000
vn -1.000000 -0.000000 -0.000000
vn 0.000000 0.000000 -1.000000
vn 0.000000 0.000000 0.000000
vn 0.000000 0.660651 -0.750693
vn -0.000000 0.673168 0.739490
vn 1.000000 -0.000001 0.000001
f 1//1 2//1 3//1 4//1
f 1//2 5//2 6//2 2//2
f 2//3 6//3 7//3 3//3
f 3//4 7//4 8//4 4//4
f 5//5 1//5 4//5 8//5
f 5//6 8//6 10//6 9//6
f 9//7 10//7 11//7 12//7
f 7//8 6//8 12//8 11//8
f 7//4 11//4 8//4
f 5//9 12//9 6//9
