<?xml version="1.0" encoding="utf-8"?>
<!-- Generator: Adobe Illustrator 13.0.0, SVG Export Plug-In . SVG Version: 6.00 Build 14948)  -->
<!DOCTYPE svg PUBLIC "-//W3C//DTD SVG 1.1//EN" "http://www.w3.org/Graphics/SVG/1.1/DTD/svg11.dtd">
<svg version="1.1" id="tiles_xA0_Image_1_" xmlns="http://www.w3.org/2000/svg" xmlns:xlink="http://www.w3.org/1999/xlink" x="0px"
	 y="0px" width="256px" height="256px" viewBox="0 0 256 256" enable-background="new 0 0 256 256" xml:space="preserve">
<polygon fill="#384393" stroke="#000000" points="55.005,163.471 82.408,143.141 106.715,152.421 112.461,186.453 85.06,215.18 
	52.795,202.362 "/>
<polygon fill="#384393" stroke="#000000" points="145.165,195.735 112.461,186.453 106.715,152.421 126.161,134.302 
	152.236,140.489 164.17,171.868 "/>
<polygon fill="#384393" stroke="#000000" points="195.106,178.498 164.17,171.868 152.236,140.489 165.496,123.694 192.455,129.882 
	208.809,158.169 "/>
<polygon fill="#384393" stroke="#000000" points="192.455,129.882 200.41,114.855 230.905,121.927 248.143,149.771 240.629,166.122 
	208.809,158.169 "/>
<polygon fill="#DCD258" stroke="#000000" points="156.656,105.574 165.496,123.694 192.455,129.882 200.41,114.855 190.245,99.387 
	168.59,96.292 "/>
<polygon fill="#99D741" stroke="#000000" points="126.161,134.302 152.236,140.489 165.496,122.811 156.656,105.574 
	137.653,101.154 121.743,113.971 "/>
<polygon fill="#99D741" stroke="#000000" points="81.966,119.274 82.408,143.141 106.715,152.421 126.161,134.302 121.743,113.971 
	100.527,108.667 "/>
<polygon fill="#83878A" stroke="#000000" points="99.644,92.315 100.527,108.667 121.743,113.971 137.653,101.154 132.35,86.569 
	113.787,82.592 "/>
<polygon fill="#99D741" stroke="#000000" points="143.839,77.289 164.17,79.94 168.59,96.292 156.656,105.574 137.653,100.712 
	132.35,86.127 "/>
<polygon fill="#2F5733" stroke="#000000" points="164.17,80.382 168.59,96.292 190.245,99.387 200.41,88.337 192.455,75.521 
	170.8,72.869 "/>
<polygon fill="#384393" stroke="#000000" points="226.487,93.641 237.095,110.436 230.905,121.927 200.41,114.855 190.245,99.387 
	200.41,88.337 "/>
<polygon fill="#384393" stroke="#000000" points="197.316,70.217 192.455,75.521 200.41,88.337 226.487,93.641 228.256,84.802 
	218.532,72.869 "/>
<polygon fill="#384393" stroke="#000000" points="190.687,60.052 197.316,70.217 218.532,72.869 220.3,64.914 209.25,58.284 
	195.993,56.516 "/>
<polygon fill="#384393" stroke="#000000" points="173.894,57.842 190.687,60.052 195.993,56.516 187.595,49.887 174.777,47.677 
	169.474,50.771 "/>
<polygon fill="#DCD258" stroke="#000000" points="170.8,72.869 192.455,75.521 197.316,70.217 190.687,60.052 173.894,57.842 
	166.38,61.82 "/>
<polygon fill="#2F5733" stroke="#000000" points="150.471,60.494 141.189,67.565 143.839,77.73 164.17,80.382 170.8,72.869 
	166.38,61.82 "/>
<polygon fill="#CCB176" stroke="#000000" points="132.35,86.569 143.839,77.73 141.189,67.565 124.395,65.355 112.019,71.984 
	113.787,82.592 "/>
<polygon fill="#EB7C20" stroke="#000000" points="99.644,92.315 113.787,82.592 112.019,71.984 95.666,68.007 81.523,77.289 
	80.64,88.779 "/>
<polygon fill="#2F5733" stroke="#000000" points="81.966,119.274 100.527,108.667 99.644,92.315 80.64,88.779 62.961,98.061 
	62.519,115.297 "/>
<polygon fill="#384393" stroke="#000000" points="40.863,130.324 34.675,157.725 55.005,163.471 82.408,144.909 81.966,119.274 
	62.519,115.297 "/>
<polygon fill="#384393" stroke="#000000" points="17.881,124.136 40.863,130.324 62.519,115.297 62.961,98.061 46.608,95.851 
	24.511,104.69 "/>
<polygon fill="#384393" stroke="#000000" points="7.716,102.922 24.511,104.69 46.608,95.851 47.934,81.266 32.908,77.289 
	14.345,83.476 "/>
<polygon fill="#384393" stroke="#000000" points="66.497,74.637 66.497,64.03 54.122,61.377 38.653,67.565 32.908,77.289 
	47.934,81.266 "/>
<polygon fill="#384393" stroke="#000000" points="53.68,52.98 54.122,61.377 66.497,64.03 79.314,57.4 80.64,48.561 70.917,45.909 
	"/>
<polygon fill="#384393" stroke="#000000" points="71.358,41.49 70.917,45.909 80.64,48.561 91.688,44.142 92.572,38.396 
	82.85,37.954 "/>
<polygon fill="#384393" stroke="#000000" points="91.688,44.142 104.063,46.792 115.997,40.164 117.323,35.302 102.737,33.092 
	93.014,37.07 "/>
<polygon fill="#384393" stroke="#000000" points="117.323,35.302 115.997,40.164 128.814,43.7 138.096,40.605 139.419,33.976 "/>
<polygon fill="#384393" stroke="#000000" points="138.096,40.605 150.471,43.7 154.005,38.396 149.585,33.534 139.419,33.976 "/>
<polygon fill="#384393" stroke="#000000" points="150.471,43.7 153.563,49.002 169.474,50.771 174.777,47.677 170.357,41.047 
	154.005,38.396 "/>
<polygon fill="#EB7C20" stroke="#000000" points="145.165,53.864 150.471,60.494 166.38,61.82 173.894,57.842 169.474,50.771 
	151.795,49.002 "/>
<polygon fill="#EB7C20" stroke="#000000" points="130.139,51.212 121.743,56.516 124.395,65.355 141.189,67.565 150.471,60.494 
	145.165,53.864 "/>
<polygon fill="#83878A" stroke="#000000" points="95.224,57.842 95.666,68.007 112.019,71.984 124.395,65.355 121.743,56.516 
	104.505,54.749 "/>
<polygon fill="#DCD258" stroke="#000000" points="79.314,57.4 95.224,57.842 104.505,54.749 104.063,46.792 91.688,44.142 
	80.64,48.561 "/>
<polygon fill="#2F5733" stroke="#000000" points="104.063,46.792 104.505,54.749 121.743,56.516 130.139,51.212 128.814,43.7 
	115.997,40.164 "/>
<polygon fill="#99D741" stroke="#000000" points="130.139,51.212 146.493,53.864 153.563,49.002 150.471,43.7 138.096,40.605 
	128.814,43.7 "/>
<polygon fill="#DCD258" stroke="#000000" points="66.497,74.637 81.523,77.289 95.666,68.007 95.224,57.842 79.314,57.4 
	66.497,64.03 "/>
<polygon fill="#83878A" stroke="#000000" points="47.934,81.266 46.608,95.851 62.961,98.061 80.64,88.779 81.523,77.289 
	66.497,74.637 "/>
</svg>
