# Blender3D v249 OBJ File: hextile_water.blend
# www.blender3d.org
mtllib HexTile_Desert.mtl
v 1.000000 0.000000 0.500000
v -0.000000 0.000000 1.200000
v -1.000000 0.000000 0.500000
v -1.000000 -0.000000 -0.500000
v 0.000001 -0.000000 -1.200000
v 1.000000 -0.000000 -0.500000
v 1.000000 0.100000 0.500000
v 0.000000 0.100000 1.200000
v -1.000000 0.100000 0.500000
v -1.000000 0.100000 -0.500000
v -0.000001 0.100000 -1.200000
v 1.000000 0.100000 -0.500000
v 0.000289 0.000000 0.000000
v 0.000289 0.100000 -0.000000
vgroup CORNERS 7 8 9 10 11 12
vt 0.000000 0.000000
vt 1.000000 0.000000
vt 1.000000 1.000000
vt 0.488166 0.508201
vt 0.988166 0.508200
vt 0.738166 0.941213
vt 0.738166 0.075188
vt 0.238166 0.075188
vt -0.011834 0.508201
vt 0.238165 0.941213
vt 0.000000 1.000000
vn 0.000000 -1.000000 0.000000
vn 0.000000 1.000000 -0.000000
vn 0.573462 -0.000002 0.819232
vn -0.573462 0.000002 0.819232
vn -1.000000 0.000000 -0.000000
vn -0.573462 -0.000004 -0.819232
vn 0.573462 0.000003 -0.819232
vn 1.000000 0.000000 -0.000000
usemtl desert.jpg
f 13/1/1 1/2/1 2/3/1
f 14/4/2 8/5/2 7/6/2
f 13/1/1 2/2/1 3/3/1
f 14/4/2 9/7/2 8/5/2
f 13/1/1 3/2/1 4/3/1
f 14/4/2 10/8/2 9/7/2
f 13/1/1 4/2/1 5/3/1
f 14/4/2 11/9/2 10/8/2
f 13/1/1 5/2/1 6/3/1
f 14/4/2 12/10/2 11/9/2
f 6/1/1 1/2/1 13/3/1
f 14/4/2 7/6/2 12/10/2
f 1/1/3 7/2/3 8/3/3 2/11/3
f 2/1/4 8/2/4 9/3/4 3/11/4
f 3/1/5 9/2/5 10/3/5 4/11/5
f 4/1/6 10/2/6 11/3/6 5/11/6
f 5/1/7 11/2/7 12/3/7 6/11/7
f 7/1/8 1/2/8 6/3/8 12/11/8
