# Blender3D v249 OBJ File: numberchip.blend
# www.blender3d.org
v 0.707107 0.145560 -0.707107
v 0.831470 0.145560 -0.555570
v 0.923880 0.145560 -0.382683
v 0.980785 0.145560 -0.195090
v 1.000000 0.145560 -0.000000
v 0.980785 0.145560 0.195090
v 0.923880 0.145560 0.382683
v 0.831470 0.145560 0.555570
v 0.707107 0.145560 0.707107
v 0.555570 0.145560 0.831470
v 0.382683 0.145560 0.923880
v 0.195090 0.145560 0.980785
v -0.000000 0.145560 1.000000
v -0.195091 0.145560 0.980785
v -0.382684 0.145560 0.923879
v -0.555571 0.145560 0.831469
v -0.707107 0.145560 0.707106
v -0.831470 0.145560 0.555570
v -0.923880 0.145560 0.382683
v -0.980785 0.145560 0.195089
v -1.000000 0.145560 -0.000001
v -0.980785 0.145560 -0.195091
v -0.923879 0.145560 -0.382684
v -0.831469 0.145560 -0.555571
v -0.707106 0.145560 -0.707108
v -0.555569 0.145560 -0.831470
v -0.382682 0.145560 -0.923880
v -0.195089 0.145560 -0.980786
v 0.000002 0.145560 -1.000000
v 0.195092 0.145560 -0.980785
v 0.382685 0.145560 -0.923879
v 0.555572 0.145560 -0.831469
v 0.707108 0.015715 -0.707105
v 0.831471 0.015715 -0.555569
v 0.923880 0.015715 -0.382682
v 0.980786 0.015715 -0.195088
v 1.000000 0.015715 0.000002
v 0.980785 0.015715 0.195092
v 0.923879 0.015715 0.382685
v 0.831469 0.015715 0.555571
v 0.707106 0.015715 0.707107
v 0.555570 0.015715 0.831470
v 0.382684 0.015715 0.923880
v 0.195091 0.015715 0.980785
v 0.000001 0.015715 1.000000
v -0.195089 0.015715 0.980786
v -0.382682 0.015715 0.923880
v -0.555568 0.015715 0.831471
v -0.707105 0.015715 0.707109
v -0.831468 0.015715 0.555573
v -0.923878 0.015715 0.382686
v -0.980785 0.015715 0.195094
v -1.000000 0.015715 0.000004
v -0.980786 0.015715 -0.195086
v -0.923881 0.015715 -0.382679
v -0.831473 0.015715 -0.555566
v -0.707111 0.015715 -0.707103
v -0.555575 0.015715 -0.831466
v -0.382689 0.015715 -0.923877
v -0.195097 0.015715 -0.980784
v -0.000007 0.015715 -1.000000
v 0.195083 0.015715 -0.980787
v 0.382676 0.015715 -0.923883
v 0.555563 0.015715 -0.831474
v 0.000000 0.145560 -0.000000
vt 0.913083 0.720798
vt 0.862070 0.797144
vt 0.499999 0.500000
vt 0.948221 0.635967
vt 0.966134 0.545911
vt 0.966134 0.454090
vt 0.948221 0.364034
vt 0.913083 0.279203
vt 0.862070 0.202856
vt 0.797143 0.137929
vt 0.720798 0.086917
vt 0.635966 0.051778
vt 0.545910 0.033865
vt 0.454090 0.033865
vt 0.364033 0.051778
vt 0.279202 0.086916
vt 0.202856 0.137929
vt 0.137929 0.202856
vt 0.086916 0.279202
vt 0.051778 0.364033
vt 0.033865 0.454089
vt 0.033865 0.545909
vt 0.051778 0.635966
vt 0.086916 0.720797
vt 0.137928 0.797144
vt 0.202855 0.862071
vt 0.279202 0.913084
vt 0.364033 0.948222
vt 0.454089 0.966135
vt 0.545910 0.966135
vt 0.635967 0.948222
vt 0.720798 0.913083
vt 0.797144 0.862070
vt 0.560332 0.482622
vt 0.560540 0.468734
vt 0.993918 0.418749
vt 1.000000 0.520550
vt 0.557993 0.454900
vt 0.968143 0.321524
vt 0.552730 0.441681
vt 0.924315 0.232499
vt 0.544901 0.429617
vt 0.864695 0.154836
vt 0.534761 0.419205
vt 0.792053 0.091133
vt 0.522657 0.410884
vt 0.709541 0.043355
vt 0.509011 0.405018
vt 0.620553 0.012784
vt 0.494307 0.401884
vt 0.528858 0.000000
vt 0.479260 0.402601
vt 0.436796 0.000000
vt 0.464753 0.406204
vt 0.345707 0.017711
vt 0.451310 0.412521
vt 0.259285 0.052731
vt 0.439416 0.421286
vt 0.180844 0.103958
vt 0.429500 0.432152
vt 0.113446 0.169644
vt 0.421916 0.444696
vt 0.059773 0.247456
vt 0.416936 0.458435
vt 0.022014 0.334560
vt 0.414733 0.472846
vt 0.001775 0.427723
vt 0.415381 0.487377
vt 0.000000 0.523438
vt 0.418842 0.501478
vt 0.016936 0.618057
vt 0.424977 0.514610
vt 0.052105 0.707933
vt 0.433543 0.526275
vt 0.104324 0.789563
vt 0.444204 0.536029
vt 0.171733 0.859721
vt 0.456545 0.543501
vt 0.251869 0.915591
vt 0.470084 0.548410
vt 0.341747 0.954878
vt 0.484294 0.550575
vt 0.437973 0.975903
vt 0.498621 0.549923
vt 0.536868 0.977672
vt 0.512507 0.546492
vt 0.634608 0.959925
vt 0.525413 0.540430
vt 0.727363 0.923157
vt 0.536840 0.531993
vt 0.811448 0.868602
vt 0.546352 0.521532
vt 0.883460 0.798206
vt 0.553593 0.509478
vt 0.940415 0.714558
vt 0.558304 0.496328
vt 0.979864 0.620805
vn -0.000000 1.000000 -0.000000
vn 0.773011 0.000000 -0.634393
vn 0.881922 0.000000 -0.471396
vn 0.956941 0.000000 -0.290284
vn 0.995185 0.000000 -0.098016
vn 0.995185 0.000000 0.098018
vn 0.956940 0.000000 0.290285
vn 0.881921 0.000000 0.471397
vn 0.773010 0.000000 0.634394
vn 0.634393 0.000000 0.773011
vn 0.471397 0.000000 0.881921
vn 0.290285 0.000000 0.956940
vn 0.098017 0.000000 0.995185
vn -0.098017 0.000000 0.995185
vn -0.290284 0.000000 0.956940
vn -0.471396 0.000000 0.881922
vn -0.634393 -0.000000 0.773011
vn -0.773010 -0.000000 0.634394
vn -0.881921 -0.000000 0.471398
vn -0.956940 0.000000 0.290286
vn -0.995185 0.000000 0.098019
vn -0.995185 0.000000 -0.098016
vn -0.956941 0.000000 -0.290283
vn -0.881922 0.000000 -0.471395
vn -0.773012 0.000000 -0.634392
vn -0.634395 0.000000 -0.773009
vn -0.471399 0.000000 -0.881920
vn -0.290287 0.000000 -0.956940
vn -0.098020 0.000000 -0.995184
vn 0.098014 0.000000 -0.995185
vn 0.290282 0.000000 -0.956941
vn 0.471394 0.000000 -0.881923
vn 0.634392 -0.000005 -0.773011
usemtl number
f 2/1/1 1/2/1 65/3/1
f 65/3/1 3/4/1 2/1/1
f 65/3/1 4/5/1 3/4/1
f 65/3/1 5/6/1 4/5/1
f 65/3/1 6/7/1 5/6/1
f 65/3/1 7/8/1 6/7/1
f 65/3/1 8/9/1 7/8/1
f 65/3/1 9/10/1 8/9/1
f 65/3/1 10/11/1 9/10/1
f 65/3/1 11/12/1 10/11/1
f 65/3/1 12/13/1 11/12/1
f 65/3/1 13/14/1 12/13/1
f 65/3/1 14/15/1 13/14/1
f 65/3/1 15/16/1 14/15/1
f 65/3/1 16/17/1 15/16/1
f 65/3/1 17/18/1 16/17/1
f 65/3/1 18/19/1 17/18/1
f 65/3/1 19/20/1 18/19/1
f 65/3/1 20/21/1 19/20/1
f 65/3/1 21/22/1 20/21/1
f 65/3/1 22/23/1 21/22/1
f 65/3/1 23/24/1 22/23/1
f 65/3/1 24/25/1 23/24/1
f 65/3/1 25/26/1 24/25/1
f 65/3/1 26/27/1 25/26/1
f 65/3/1 27/28/1 26/27/1
f 65/3/1 28/29/1 27/28/1
f 65/3/1 29/30/1 28/29/1
f 65/3/1 30/31/1 29/30/1
f 65/3/1 31/32/1 30/31/1
f 65/3/1 32/33/1 31/32/1
f 65/3/1 1/2/1 32/33/1
usemtl (null)
f 1/34/2 2/35/2 34/36/2 33/37/2
f 2/35/3 3/38/3 35/39/3 34/36/3
f 3/38/4 4/40/4 36/41/4 35/39/4
f 4/40/5 5/42/5 37/43/5 36/41/5
f 5/42/6 6/44/6 38/45/6 37/43/6
f 6/44/7 7/46/7 39/47/7 38/45/7
f 7/46/8 8/48/8 40/49/8 39/47/8
f 8/48/9 9/50/9 41/51/9 40/49/9
f 9/50/10 10/52/10 42/53/10 41/51/10
f 10/52/11 11/54/11 43/55/11 42/53/11
f 11/54/12 12/56/12 44/57/12 43/55/12
f 12/56/13 13/58/13 45/59/13 44/57/13
f 13/58/14 14/60/14 46/61/14 45/59/14
f 14/60/15 15/62/15 47/63/15 46/61/15
f 15/62/16 16/64/16 48/65/16 47/63/16
f 16/64/17 17/66/17 49/67/17 48/65/17
f 17/66/18 18/68/18 50/69/18 49/67/18
f 18/68/19 19/70/19 51/71/19 50/69/19
f 19/70/20 20/72/20 52/73/20 51/71/20
f 20/72/21 21/74/21 53/75/21 52/73/21
f 21/74/22 22/76/22 54/77/22 53/75/22
f 22/76/23 23/78/23 55/79/23 54/77/23
f 23/78/24 24/80/24 56/81/24 55/79/24
f 24/80/25 25/82/25 57/83/25 56/81/25
f 25/82/26 26/84/26 58/85/26 57/83/26
f 26/84/27 27/86/27 59/87/27 58/85/27
f 27/86/28 28/88/28 60/89/28 59/87/28
f 28/88/29 29/90/29 61/91/29 60/89/29
f 29/90/30 30/92/30 62/93/30 61/91/30
f 30/92/31 31/94/31 63/95/31 62/93/31
f 31/94/32 32/96/32 64/97/32 63/95/32
f 32/96/33 1/34/33 33/37/33 64/97/33
